<svg width="48" height="48" viewBox="0 0 48 48" fill="none" xmlns="http://www.w3.org/2000/svg">
<rect width="48" height="48" rx="24" fill="#009FE3" fill-opacity="0.1"/>
<path d="M13 32V28C13 27.4333 13.1958 26.9583 13.5875 26.575C13.9792 26.1917 14.45 26 15 26H18.275C18.6083 26 18.925 26.0833 19.225 26.25C19.525 26.4167 19.7667 26.6417 19.95 26.925C20.4333 27.575 21.0292 28.0833 21.7375 28.45C22.4458 28.8167 23.2 29 24 29C24.8167 29 25.5792 28.8167 26.2875 28.45C26.9958 28.0833 27.5833 27.575 28.05 26.925C28.2667 26.6417 28.5208 26.4167 28.8125 26.25C29.1042 26.0833 29.4083 26 29.725 26H33C33.5667 26 34.0417 26.1917 34.425 26.575C34.8083 26.9583 35 27.4333 35 28V32H28V29.725C27.4167 30.1417 26.7875 30.4583 26.1125 30.675C25.4375 30.8917 24.7333 31 24 31C23.2833 31 22.5833 30.8875 21.9 30.6625C21.2167 30.4375 20.5833 30.1167 20 29.7V32H13ZM24 28C23.3667 28 22.7667 27.8542 22.2 27.5625C21.6333 27.2708 21.1583 26.8667 20.775 26.35C20.4917 25.9333 20.1375 25.6042 19.7125 25.3625C19.2875 25.1208 18.825 25 18.325 25C18.6917 24.3833 19.4667 23.8958 20.65 23.5375C21.8333 23.1792 22.95 23 24 23C25.05 23 26.1667 23.1792 27.35 23.5375C28.5333 23.8958 29.3083 24.3833 29.675 25C29.1917 25 28.7333 25.1208 28.3 25.3625C27.8667 25.6042 27.5083 25.9333 27.225 26.35C26.8583 26.8833 26.3917 27.2917 25.825 27.575C25.2583 27.8583 24.65 28 24 28ZM16 25C15.1667 25 14.4583 24.7083 13.875 24.125C13.2917 23.5417 13 22.8333 13 22C13 21.15 13.2917 20.4375 13.875 19.8625C14.4583 19.2875 15.1667 19 16 19C16.85 19 17.5625 19.2875 18.1375 19.8625C18.7125 20.4375 19 21.15 19 22C19 22.8333 18.7125 23.5417 18.1375 24.125C17.5625 24.7083 16.85 25 16 25ZM32 25C31.1667 25 30.4583 24.7083 29.875 24.125C29.2917 23.5417 29 22.8333 29 22C29 21.15 29.2917 20.4375 29.875 19.8625C30.4583 19.2875 31.1667 19 32 19C32.85 19 33.5625 19.2875 34.1375 19.8625C34.7125 20.4375 35 21.15 35 22C35 22.8333 34.7125 23.5417 34.1375 24.125C33.5625 24.7083 32.85 25 32 25ZM24 22C23.1667 22 22.4583 21.7083 21.875 21.125C21.2917 20.5417 21 19.8333 21 19C21 18.15 21.2917 17.4375 21.875 16.8625C22.4583 16.2875 23.1667 16 24 16C24.85 16 25.5625 16.2875 26.1375 16.8625C26.7125 17.4375 27 18.15 27 19C27 19.8333 26.7125 20.5417 26.1375 21.125C25.5625 21.7083 24.85 22 24 22Z" fill="#009FE3"/>
</svg>
