<svg width="64" height="64" viewBox="0 0 64 64" fill="none" xmlns="http://www.w3.org/2000/svg">
<rect width="64" height="64" rx="16" fill="#EF7D00" fill-opacity="0.1"/>
<path d="M39.5 33.25V30.75H44.5V33.25H39.5ZM41 42L37 39L38.5 37L42.5 40L41 42ZM38.5 27L37 25L41 22L42.5 24L38.5 27ZM23.25 40.75V35.75H22C21.3125 35.75 20.724 35.5052 20.2344 35.0156C19.7448 34.526 19.5 33.9375 19.5 33.25V30.75C19.5 30.0625 19.7448 29.474 20.2344 28.9844C20.724 28.4948 21.3125 28.25 22 28.25H27L33.25 24.5V39.5L27 35.75H25.75V40.75H23.25ZM30.75 35.0625V28.9375L27.6875 30.75H22V33.25H27.6875L30.75 35.0625ZM34.5 36.1875V27.8125C35.0625 28.3125 35.5156 28.9219 35.8594 29.6406C36.2031 30.3594 36.375 31.1458 36.375 32C36.375 32.8542 36.2031 33.6406 35.8594 34.3594C35.5156 35.0781 35.0625 35.6875 34.5 36.1875Z" fill="#EF7D00"/>
</svg>
