<svg width="148" height="20" viewBox="0 0 148 20" fill="none" xmlns="http://www.w3.org/2000/svg">
<g opacity="0.6">
<rect y="9.5" width="48" height="1" fill="#3E4850"/>
<path d="M70 16L74 12.95L78 16L76.5 11.05L80.5 8.2H75.6L74 3L72.4 8.2H67.5L71.5 11.05L70 16ZM74 20C72.6167 20 71.3167 19.7375 70.1 19.2125C68.8833 18.6875 67.825 17.975 66.925 17.075C66.025 16.175 65.3125 15.1167 64.7875 13.9C64.2625 12.6833 64 11.3833 64 10C64 8.61667 64.2625 7.31667 64.7875 6.1C65.3125 4.88333 66.025 3.825 66.925 2.925C67.825 2.025 68.8833 1.3125 70.1 0.7875C71.3167 0.2625 72.6167 0 74 0C75.3833 0 76.6833 0.2625 77.9 0.7875C79.1167 1.3125 80.175 2.025 81.075 2.925C81.975 3.825 82.6875 4.88333 83.2125 6.1C83.7375 7.31667 84 8.61667 84 10C84 11.3833 83.7375 12.6833 83.2125 13.9C82.6875 15.1167 81.975 16.175 81.075 17.075C80.175 17.975 79.1167 18.6875 77.9 19.2125C76.6833 19.7375 75.3833 20 74 20ZM74 18C76.2333 18 78.125 17.225 79.675 15.675C81.225 14.125 82 12.2333 82 10C82 7.76667 81.225 5.875 79.675 4.325C78.125 2.775 76.2333 2 74 2C71.7667 2 69.875 2.775 68.325 4.325C66.775 5.875 66 7.76667 66 10C66 12.2333 66.775 14.125 68.325 15.675C69.875 17.225 71.7667 18 74 18Z" fill="#1A1A2E"/>
<rect x="100" y="9.5" width="48" height="1" fill="#3E4850"/>
</g>
</svg>
