<svg width="64" height="64" viewBox="0 0 64 64" fill="none" xmlns="http://www.w3.org/2000/svg">
<rect width="64" height="64" rx="16" fill="#009FE3" fill-opacity="0.1"/>
<path d="M37.625 32.9375L32.4375 27.875C31.7917 27.25 31.2448 26.5573 30.7969 25.7969C30.349 25.0365 30.125 24.2083 30.125 23.3125C30.125 22.1667 30.526 21.1927 31.3281 20.3906C32.1302 19.5885 33.1042 19.1875 34.25 19.1875C34.9167 19.1875 35.5417 19.3281 36.125 19.6094C36.7083 19.8906 37.2083 20.2708 37.625 20.75C38.0417 20.2708 38.5417 19.8906 39.125 19.6094C39.7083 19.3281 40.3333 19.1875 41 19.1875C42.1458 19.1875 43.1198 19.5885 43.9219 20.3906C44.724 21.1927 45.125 22.1667 45.125 23.3125C45.125 24.2083 44.9062 25.0365 44.4688 25.7969C44.0312 26.5573 43.4896 27.25 42.8438 27.875L37.625 32.9375ZM37.625 29.4375L41.0312 26.0938C41.4271 25.6979 41.7917 25.276 42.125 24.8281C42.4583 24.3802 42.625 23.875 42.625 23.3125C42.625 22.8542 42.4688 22.4688 42.1562 22.1562C41.8438 21.8438 41.4583 21.6875 41 21.6875C40.7083 21.6875 40.4323 21.7448 40.1719 21.8594C39.9115 21.974 39.6875 22.1458 39.5 22.375L37.625 24.625L35.75 22.375C35.5625 22.1458 35.3385 21.974 35.0781 21.8594C34.8177 21.7448 34.5417 21.6875 34.25 21.6875C33.7917 21.6875 33.4062 21.8438 33.0938 22.1562C32.7812 22.4688 32.625 22.8542 32.625 23.3125C32.625 23.875 32.7917 24.3802 33.125 24.8281C33.4583 25.276 33.8229 25.6979 34.2188 26.0938L37.625 29.4375ZM26.375 39.8125L35.0625 42.1875L42.5 39.875C42.3958 39.6875 42.2448 39.526 42.0469 39.3906C41.849 39.2552 41.625 39.1875 41.375 39.1875H35.0625C34.5 39.1875 34.0521 39.1667 33.7188 39.125C33.3854 39.0833 33.0417 39 32.6875 38.875L29.7812 37.9062L30.4688 35.4688L33 36.3125C33.3542 36.4167 33.7708 36.5 34.25 36.5625C34.7292 36.625 35.4375 36.6667 36.375 36.6875C36.375 36.4583 36.3073 36.2396 36.1719 36.0312C36.0365 35.8229 35.875 35.6875 35.6875 35.625L28.375 32.9375H26.375V39.8125ZM18.875 44.1875V30.4375H28.375C28.5208 30.4375 28.6667 30.4531 28.8125 30.4844C28.9583 30.5156 29.0938 30.5521 29.2188 30.5938L36.5625 33.3125C37.25 33.5625 37.8073 34 38.2344 34.625C38.6615 35.25 38.875 35.9375 38.875 36.6875H41.375C42.4167 36.6875 43.3021 37.0312 44.0312 37.7188C44.7604 38.4062 45.125 39.3125 45.125 40.4375V41.6875L35.125 44.8125L26.375 42.375V44.1875H18.875ZM21.375 41.6875H23.875V32.9375H21.375V41.6875Z" fill="#009FE3"/>
</svg>
