<svg width="100" height="100" viewBox="0 0 100 100" fill="none" xmlns="http://www.w3.org/2000/svg">
<g clip-path="url(#clip0_911_1108)">
<path d="M92.6565 37.5V34.9997H97.6562C98.32 35.0006 98.9563 34.7369 99.425 34.2682C99.8938 33.7994 100.157 33.1631 100.157 32.5003V25.0003C100.157 24.0335 99.5999 23.1537 98.7256 22.7417L51.2262 0.241699C50.5496 -0.0805664 49.7641 -0.0805664 49.0875 0.241699L1.58722 22.7417C0.713806 23.1537 0.15625 24.0335 0.15625 25.0003V32.5003C0.15625 33.1631 0.419006 33.7994 0.888672 34.2682C1.35742 34.7369 1.99371 35.0006 2.65655 34.9997H7.65625V37.5C7.66632 40.6677 9.66858 43.4866 12.6569 44.5395V75.4605C9.66858 76.5133 7.66632 79.3323 7.65625 82.5V85.0003H2.65655C1.99371 84.9994 1.35742 85.263 0.888672 85.7318C0.419006 86.2005 0.15625 86.8368 0.15625 87.4997V97.5C0.15625 98.1628 0.419006 98.7991 0.888672 99.2679C1.35742 99.7375 1.99371 100 2.65655 100H97.6562C98.32 100 98.9563 99.7375 99.425 99.2679C99.8938 98.7991 100.157 98.1628 100.157 97.5V87.4997C100.157 86.8368 99.8938 86.2005 99.425 85.7318C98.9563 85.263 98.32 84.9994 97.6562 85.0003H92.6565V82.5C92.6474 79.3323 90.6442 76.5133 87.6568 75.4605V44.5395C90.6442 43.4866 92.6474 40.6677 92.6565 37.5ZM87.6568 37.5C87.655 38.8797 86.5362 39.9985 85.1565 40.0003H75.1562C73.7765 39.9985 72.6587 38.8797 72.6568 37.5V34.9997H87.6568V37.5ZM82.6562 75H77.6565V45H82.6562V75ZM67.6562 82.5V85.0003H62.6565V82.5C62.6474 79.3323 60.6442 76.5133 57.6568 75.4605V44.5395C60.6442 43.4866 62.6474 40.6677 62.6565 37.5V34.9997H67.6562V37.5C67.6663 40.6677 69.6686 43.4866 72.6568 44.5395V75.4605C69.6686 76.5133 67.6663 79.3323 67.6562 82.5ZM32.6565 85.0003V82.5C32.6474 79.3323 30.6442 76.5133 27.6569 75.4605V44.5395C30.6442 43.4866 32.6474 40.6677 32.6565 37.5V34.9997H37.6562V37.5C37.6663 40.6677 39.6686 43.4866 42.6568 44.5395V75.4605C39.6686 76.5133 37.6663 79.3323 37.6562 82.5V85.0003H32.6565ZM17.6566 45H22.6562V75H17.6566V45ZM47.6565 45H52.6562V75H47.6565V45ZM55.1565 40.0003H45.1562C43.7765 39.9985 42.6587 38.8797 42.6568 37.5V34.9997H57.6568V37.5C57.655 38.8797 56.5362 39.9985 55.1565 40.0003ZM42.6568 82.5C42.6596 81.1203 43.7765 80.0024 45.1562 79.9997H55.1565C56.5362 80.0024 57.6541 81.1203 57.6568 82.5V85.0003H42.6568V82.5ZM5.15686 26.5823L50.1568 5.26611L95.1568 26.5823V30H5.15686V26.5823ZM27.6569 34.9997V37.5C27.655 38.8797 26.5362 39.9985 25.1565 40.0003H15.1562C13.7765 39.9985 12.6587 38.8797 12.6569 37.5V34.9997H27.6569ZM12.6569 82.5C12.6596 81.1203 13.7765 80.0024 15.1562 79.9997H25.1565C26.5362 80.0024 27.6541 81.1203 27.6569 82.5V85.0003H12.6569V82.5ZM95.1568 94.9997H5.15686V90H95.1568V94.9997ZM72.6568 85.0003V82.5C72.6596 81.1203 73.7765 80.0024 75.1562 79.9997H85.1565C86.5362 80.0024 87.6541 81.1203 87.6568 82.5V85.0003H72.6568Z" fill="#009FE8"/>
</g>
<defs>
<clipPath id="clip0_911_1108">
<rect width="100" height="100" fill="white"/>
</clipPath>
</defs>
</svg>
