<svg width="11" height="11" viewBox="0 0 11 11" fill="none" xmlns="http://www.w3.org/2000/svg">
<path d="M6.70833 5.10417C6.9125 5.10417 7.08507 5.03368 7.22604 4.89271C7.36701 4.75174 7.4375 4.57917 7.4375 4.375C7.4375 4.17083 7.36701 3.99826 7.22604 3.85729C7.08507 3.71632 6.9125 3.64583 6.70833 3.64583C6.50417 3.64583 6.3316 3.71632 6.19063 3.85729C6.04965 3.99826 5.97917 4.17083 5.97917 4.375C5.97917 4.57917 6.04965 4.75174 6.19063 4.89271C6.3316 5.03368 6.50417 5.10417 6.70833 5.10417ZM3.79167 5.10417C3.99583 5.10417 4.1684 5.03368 4.30937 4.89271C4.45035 4.75174 4.52083 4.57917 4.52083 4.375C4.52083 4.17083 4.45035 3.99826 4.30937 3.85729C4.1684 3.71632 3.99583 3.64583 3.79167 3.64583C3.5875 3.64583 3.41493 3.71632 3.27396 3.85729C3.13299 3.99826 3.0625 4.17083 3.0625 4.375C3.0625 4.57917 3.13299 4.75174 3.27396 4.89271C3.41493 5.03368 3.5875 5.10417 3.79167 5.10417ZM5.25 8.16667C5.83333 8.16667 6.36076 8.00625 6.83229 7.68542C7.30382 7.36458 7.65139 6.94167 7.875 6.41667H2.625C2.84861 6.94167 3.19618 7.36458 3.66771 7.68542C4.13924 8.00625 4.66667 8.16667 5.25 8.16667ZM5.25 10.5C4.52083 10.5 3.83785 10.3615 3.20104 10.0844C2.56424 9.80729 2.01007 9.43299 1.53854 8.96146C1.06701 8.48993 0.692708 7.93576 0.415625 7.29896C0.138542 6.66215 0 5.97917 0 5.25C0 4.52083 0.138542 3.83785 0.415625 3.20104C0.692708 2.56424 1.06701 2.01007 1.53854 1.53854C2.01007 1.06701 2.56424 0.692708 3.20104 0.415625C3.83785 0.138542 4.52083 0 5.25 0C5.97917 0 6.66215 0.138542 7.29896 0.415625C7.93576 0.692708 8.48993 1.06701 8.96146 1.53854C9.43299 2.01007 9.80729 2.56424 10.0844 3.20104C10.3615 3.83785 10.5 4.52083 10.5 5.25C10.5 5.97917 10.3615 6.66215 10.0844 7.29896C9.80729 7.93576 9.43299 8.48993 8.96146 8.96146C8.48993 9.43299 7.93576 9.80729 7.29896 10.0844C6.66215 10.3615 5.97917 10.5 5.25 10.5ZM5.48333 3.20833C5.64861 3.20833 5.83576 3.17674 6.04479 3.11354C6.25382 3.05035 6.35833 2.90694 6.35833 2.68333C6.35833 2.56667 6.31944 2.46458 6.24167 2.37708C6.16389 2.28958 6.06667 2.24583 5.95 2.24583C5.87222 2.24583 5.79688 2.26042 5.72396 2.28958C5.65104 2.31875 5.57083 2.33333 5.48333 2.33333C5.27917 2.33333 5.1066 2.26285 4.96562 2.12188C4.82465 1.9809 4.75417 1.80833 4.75417 1.60417C4.75417 1.49722 4.77118 1.40729 4.80521 1.33438C4.83924 1.26146 4.89028 1.21042 4.95833 1.18125C4.77361 1.20069 4.59375 1.225 4.41875 1.25417C4.24375 1.28333 4.07361 1.33194 3.90833 1.4C3.89861 1.42917 3.89132 1.46319 3.88646 1.50208C3.8816 1.54097 3.87917 1.575 3.87917 1.60417C3.87917 2.04167 4.03715 2.4184 4.35313 2.73438C4.6691 3.05035 5.04583 3.20833 5.48333 3.20833Z" fill="white"/>
</svg>
