<svg width="100" height="100" viewBox="0 0 100 100" fill="none" xmlns="http://www.w3.org/2000/svg">
<g clip-path="url(#clip0_911_1110)">
<path d="M87.5 0H33.3333C26.4417 0 20.8333 5.60833 20.8333 12.5V25H0V85.4167C0 93.4583 6.54167 100 14.5833 100H85.4167C93.4583 100 100 93.4583 100 85.4167V12.5C100 5.60833 94.3917 0 87.5 0ZM20.8333 85.4167C20.8333 88.8625 18.0292 91.6667 14.5833 91.6667C11.1375 91.6667 8.33333 88.8625 8.33333 85.4167V33.3333H20.8333V85.4167ZM91.6667 85.4167C91.6667 88.8625 88.8625 91.6667 85.4167 91.6667H27.7583C28.6583 89.7708 29.1667 87.6542 29.1667 85.4167V12.5C29.1667 10.2042 31.0375 8.33333 33.3333 8.33333H87.5C89.7958 8.33333 91.6667 10.2042 91.6667 12.5V85.4167ZM62.5 25H83.3333V33.3333H62.5V25ZM37.5 41.6667H83.3333V50H37.5V41.6667ZM37.5 58.3333H83.3333V66.6667H37.5V58.3333ZM37.5 75H83.3333V83.3333H37.5V75ZM54.1667 33.3333H37.5V16.6667H54.1667V33.3333Z" fill="#009FE8"/>
</g>
<defs>
<clipPath id="clip0_911_1110">
<rect width="100" height="100" fill="white"/>
</clipPath>
</defs>
</svg>
