<svg width="48" height="48" viewBox="0 0 48 48" fill="none" xmlns="http://www.w3.org/2000/svg">
<path d="M10.1333 22.6213C11.3396 22.5009 13.9936 22.5009 13.9936 20.8118C13.9936 18.5203 10.6161 15.5045 5.18771 12.2474C3.49935 11.1614 -1.90735e-06 9.47301 -1.90735e-06 7.18073C-1.90735e-06 5.37127 1.32739 4.04464 4.10174 4.40638C6.75576 4.76812 10.8575 6.57758 16.2851 11.1614C21.9549 15.8663 27.2622 23.7072 27.2622 31.4271C27.2622 39.2681 21.9549 47.1091 13.3897 47.1091C6.51434 47.1091 0.603149 41.9221 0.603149 34.8046C0.603912 29.3763 4.34315 23.1041 10.1333 22.6213Z" fill="#029CD3"/>
<path d="M27.0908 19.2288C28.0816 18.711 29.1683 18.3721 30.3411 18.2746C31.5474 18.1543 34.2014 18.1543 34.2014 16.4651C34.2014 14.1736 30.8239 11.1578 25.3956 7.90067C23.7064 6.8147 20.2086 5.12633 20.2086 2.83405C20.2086 1.02459 21.536 -0.302037 24.3104 0.0597021C26.9644 0.421441 31.0661 2.2309 36.4937 6.8147C42.1627 11.5196 47.4708 19.3606 47.4708 27.0812C47.4708 34.9222 42.1635 42.7631 33.5983 42.7631C31.5847 42.7631 29.6549 42.3154 27.9315 41.5073C29.6214 38.452 30.5224 34.9168 30.5224 31.4274C30.5216 27.1185 29.134 22.9399 27.0908 19.2288Z" fill="#029CD3"/>
</svg>
