<svg width="100" height="100" viewBox="0 0 100 100" fill="none" xmlns="http://www.w3.org/2000/svg">
<g clip-path="url(#clip0_911_1112)">
<path d="M37.3542 100H16.6667C12.2464 100 8.00716 98.244 4.88155 95.1184C1.75595 91.9928 0 87.7536 0 83.3333V62.5C0 58.0797 1.75595 53.8405 4.88155 50.7149C8.00716 47.5893 12.2464 45.8333 16.6667 45.8333H53.5708C55.8258 45.8344 58.0424 46.4175 60.006 47.5263C61.9695 48.6352 63.6137 50.232 64.7792 52.1625L78.1833 37.4333C79.2921 36.2141 80.6302 35.2254 82.1212 34.5236C83.6123 33.8218 85.227 33.4208 86.8731 33.3434C88.5193 33.266 90.1645 33.5138 91.7148 34.0725C93.2651 34.6313 94.6901 35.4902 95.9083 36.6C98.339 38.833 99.7957 41.9312 99.9648 45.2276C100.134 48.524 99.0019 51.755 96.8125 54.225L68.4792 86.0458C64.5671 90.4334 59.772 93.9447 54.4081 96.3495C49.0441 98.7542 43.2325 99.9983 37.3542 100ZM16.6667 54.1667C14.4565 54.1667 12.3369 55.0446 10.7741 56.6074C9.21131 58.1702 8.33333 60.2899 8.33333 62.5V83.3333C8.33333 85.5435 9.21131 87.6631 10.7741 89.2259C12.3369 90.7887 14.4565 91.6667 16.6667 91.6667H37.3542C42.0538 91.6648 46.7001 90.6697 50.9883 88.7468C55.2766 86.8238 59.1101 84.0163 62.2375 80.5083L90.5917 48.6833C91.3278 47.8541 91.7089 46.769 91.6528 45.6616C91.5967 44.5541 91.1079 43.513 90.2917 42.7625C89.4617 42.0163 88.3735 41.6232 87.2583 41.6667C86.7055 41.6901 86.1629 41.8233 85.6621 42.0587C85.1613 42.294 84.7125 42.6268 84.3417 43.0375L65.9 63.3333C65.0904 65.574 63.6875 67.5529 61.8412 69.0587C59.9949 70.5645 57.7744 71.5408 55.4167 71.8833L33.9125 74.9583C32.8185 75.1152 31.7069 74.8311 30.8224 74.1685C29.9378 73.5059 29.3528 72.519 29.1958 71.425C29.0389 70.331 29.323 69.2194 29.9856 68.3349C30.6483 67.4503 31.6352 66.8652 32.7292 66.7083L54.2375 63.6375C55.4314 63.4706 56.5174 62.8568 57.2762 61.92C58.035 60.9832 58.4099 59.7934 58.3253 58.5909C58.2406 57.3883 57.7027 56.2628 56.8202 55.4415C55.9377 54.6203 54.7763 54.1647 53.5708 54.1667H16.6667ZM45.8333 37.8083C43.9448 37.8134 42.1114 37.1724 40.6375 35.9917C33.5042 30.2667 25 21.6667 25 13.3333C24.8977 9.90985 26.1553 6.58519 28.4978 4.08652C30.8403 1.58785 34.077 0.118551 37.5 0C40.6139 0.0121284 43.6016 1.23257 45.8333 3.40417C48.0651 1.23257 51.0527 0.0121284 54.1667 0C57.5896 0.118551 60.8263 1.58785 63.1688 4.08652C65.5113 6.58519 66.769 9.90985 66.6667 13.3333C66.6667 21.6667 58.1625 30.2667 51.025 35.9958C49.5517 37.1741 47.7199 37.8136 45.8333 37.8083ZM37.5 8.33333C36.289 8.45484 35.174 9.04675 34.3948 9.98177C33.6156 10.9168 33.2345 12.1202 33.3333 13.3333C33.3333 17.0833 38.1292 23.2917 45.8583 29.4958C53.5375 23.2917 58.3333 17.0833 58.3333 13.3333C58.4322 12.1202 58.0511 10.9168 57.2719 9.98177C56.4927 9.04675 55.3777 8.45484 54.1667 8.33333C52.9556 8.45484 51.8406 9.04675 51.0615 9.98177C50.2823 10.9168 49.9011 12.1202 50 13.3333C50 14.4384 49.561 15.4982 48.7796 16.2796C47.9982 17.061 46.9384 17.5 45.8333 17.5C44.7283 17.5 43.6685 17.061 42.8871 16.2796C42.1057 15.4982 41.6667 14.4384 41.6667 13.3333C41.7655 12.1202 41.3844 10.9168 40.6052 9.98177C39.826 9.04675 38.711 8.45484 37.5 8.33333Z" fill="#009FE8"/>
</g>
<defs>
<clipPath id="clip0_911_1112">
<rect width="100" height="100" fill="white"/>
</clipPath>
</defs>
</svg>
