<svg width="100" height="100" viewBox="0 0 100 100" fill="none" xmlns="http://www.w3.org/2000/svg">
<g clip-path="url(#clip0_911_1101)">
<path d="M50 0C40.111 0 30.444 2.93245 22.2215 8.42652C13.9991 13.9206 7.59043 21.7295 3.80605 30.8658C0.0216643 40.0021 -0.968503 50.0555 0.960758 59.7545C2.89002 69.4536 7.65206 78.3627 14.6447 85.3553C21.6373 92.348 30.5465 97.11 40.2455 99.0393C49.9446 100.969 59.9979 99.9784 69.1342 96.194C78.2705 92.4096 86.0794 86.001 91.5735 77.7785C97.0676 69.5561 100 59.8891 100 50C99.9857 36.7436 94.7132 24.0342 85.3395 14.6605C75.9658 5.28678 63.2564 0.0143378 50 0ZM91.6667 50C91.6716 58.1655 89.2623 66.1501 84.7417 72.95L79.775 67.9792C79.3856 67.5887 79.1668 67.0598 79.1667 66.5083V62.5C79.1667 59.1848 77.8497 56.0054 75.5055 53.6612C73.1613 51.317 69.9819 50 66.6667 50H54.1667C53.0616 50 52.0018 49.561 51.2204 48.7796C50.439 47.9982 50 46.9384 50 45.8333V43.75C50 43.1975 50.2195 42.6676 50.6102 42.2769C51.0009 41.8862 51.5308 41.6667 52.0834 41.6667C54.846 41.6667 57.4955 40.5692 59.4491 38.6157C61.4026 36.6622 62.5 34.0127 62.5 31.25V27.0833C62.5 26.5308 62.7195 26.0009 63.1102 25.6102C63.5009 25.2195 64.0308 25 64.5834 25H70.3292C73.0892 24.9921 75.7347 23.8962 77.6917 21.95L79.2625 20.3792C83.1925 24.2462 86.3132 28.8568 88.4429 33.9424C90.5725 39.0279 91.6684 44.4866 91.6667 50ZM8.53752 54.0125L21.6959 67.1708C22.8538 68.3362 24.2316 69.2601 25.7494 69.8888C27.2672 70.5175 28.8947 70.8386 30.5375 70.8333H41.6667C42.7718 70.8333 43.8316 71.2723 44.613 72.0537C45.3944 72.8351 45.8334 73.8949 45.8334 75V91.4542C36.2508 90.476 27.3017 86.2132 20.5039 79.3889C13.7061 72.5645 9.47827 63.5988 8.53752 54.0125ZM54.1667 91.4542V75C54.1667 71.6848 52.8497 68.5054 50.5055 66.1612C48.1613 63.817 44.9819 62.5 41.6667 62.5H30.5375C29.9897 62.5004 29.4471 62.3928 28.941 62.1833C28.4348 61.9739 27.9748 61.6666 27.5875 61.2792L9.01252 42.7042C10.2049 35.9258 13.0614 29.5496 17.3258 24.1474C21.5901 18.7453 27.1288 14.4863 33.445 11.7526C39.7612 9.01883 46.6572 7.8959 53.5144 8.48451C60.3716 9.07311 66.9754 11.3549 72.7334 15.125L71.8 16.0583C71.4078 16.4451 70.88 16.6634 70.3292 16.6667H64.5834C61.8207 16.6667 59.1712 17.7641 57.2177 19.7176C55.2642 21.6711 54.1667 24.3207 54.1667 27.0833V31.25C54.1667 31.8025 53.9472 32.3324 53.5565 32.7231C53.1658 33.1138 52.6359 33.3333 52.0834 33.3333C49.3207 33.3333 46.6712 34.4308 44.7177 36.3843C42.7642 38.3378 41.6667 40.9873 41.6667 43.75V45.8333C41.6667 49.1485 42.9836 52.328 45.3279 54.6722C47.6721 57.0164 50.8515 58.3333 54.1667 58.3333H66.6667C67.7718 58.3333 68.8316 58.7723 69.613 59.5537C70.3944 60.3351 70.8334 61.3949 70.8334 62.5V66.5083C70.8412 69.2683 71.9371 71.9138 73.8834 73.8708L79.4542 79.4417C72.6686 86.2508 63.7317 90.4961 54.1667 91.4542Z" fill="#009FE8"/>
</g>
<defs>
<clipPath id="clip0_911_1101">
<rect width="100" height="100" fill="white"/>
</clipPath>
</defs>
</svg>
